<svg width="40" height="33" viewBox="0 0 40 33" fill="none" xmlns="http://www.w3.org/2000/svg">
<rect width="40" height="33" rx="10" fill="#CBEFBE" fill-opacity="0.55"/>
<path d="M13.2829 21.8095C13.779 21.8095 14.2006 21.629 14.5478 21.2679C14.895 20.9067 15.0686 20.4683 15.0686 19.9524C15.0686 19.4365 14.895 18.998 14.5478 18.6369C14.2006 18.2758 13.779 18.0952 13.2829 18.0952C12.7869 18.0952 12.3653 18.2758 12.018 18.6369C11.6708 18.998 11.4972 19.4365 11.4972 19.9524C11.4972 20.4683 11.6708 20.9067 12.018 21.2679C12.3653 21.629 12.7869 21.8095 13.2829 21.8095ZM21.6163 21.8095C22.1123 21.8095 22.5339 21.629 22.8811 21.2679C23.2284 20.9067 23.402 20.4683 23.402 19.9524C23.402 19.4365 23.2284 18.998 22.8811 18.6369C22.5339 18.2758 22.1123 18.0952 21.6163 18.0952C21.1202 18.0952 20.6986 18.2758 20.3514 18.6369C20.0042 18.998 19.8305 19.4365 19.8305 19.9524C19.8305 20.4683 20.0042 20.9067 20.3514 21.2679C20.6986 21.629 21.1202 21.8095 21.6163 21.8095ZM10.3067 28C9.96943 28 9.68669 27.8813 9.45852 27.644C9.23034 27.4067 9.11626 27.1127 9.11626 26.7619V24.2238C8.75911 23.8111 8.47142 23.352 8.25316 22.8464C8.03491 22.3409 7.92578 21.7889 7.92578 21.1905V9.42857C7.92578 8.80952 8.03987 8.18532 8.26804 7.55595C8.49622 6.92659 9.00217 6.36429 9.7859 5.86905C10.5696 5.37381 11.7254 4.99722 13.2532 4.73929C14.7809 4.48135 16.8345 4.41429 19.4139 4.5381C19.2551 4.93016 19.1212 5.32738 19.0121 5.72976C18.903 6.13214 18.8186 6.53968 18.7591 6.95238C16.5369 6.89048 14.7809 6.97302 13.4913 7.2C12.2016 7.42698 11.3186 7.75714 10.8424 8.19048H18.6401C18.6401 8.60317 18.6698 9.01587 18.7294 9.42857C18.7889 9.84127 18.8782 10.254 18.9972 10.6667H10.3067V14.381H21.1401C21.894 15.1651 22.772 15.7738 23.774 16.2071C24.776 16.6405 25.8424 16.8571 26.9734 16.8571V21.1905C26.9734 21.7889 26.8643 22.3409 26.646 22.8464C26.4278 23.352 26.1401 23.8111 25.7829 24.2238V26.7619C25.7829 27.1127 25.6688 27.4067 25.4407 27.644C25.2125 27.8813 24.9298 28 24.5924 28H23.402C23.0647 28 22.7819 27.8813 22.5538 27.644C22.3256 27.4067 22.2115 27.1127 22.2115 26.7619V25.5238H12.6877V26.7619C12.6877 27.1127 12.5736 27.4067 12.3454 27.644C12.1172 27.8813 11.8345 28 11.4972 28H10.3067ZM22.2115 16.8571H10.3067H24.5924H22.2115ZM26.9734 14.381C25.3266 14.381 23.9228 13.7774 22.7621 12.5702C21.6014 11.3631 21.021 9.90317 21.021 8.19048C21.021 6.47778 21.6014 5.01786 22.7621 3.81071C23.9228 2.60357 25.3266 2 26.9734 2C28.6202 2 30.024 2.60357 31.1847 3.81071C32.3454 5.01786 32.9258 6.47778 32.9258 8.19048C32.9258 9.90317 32.3454 11.3631 31.1847 12.5702C30.024 13.7774 28.6202 14.381 26.9734 14.381ZM26.3782 9.42857H27.5686V4.47619H26.3782V9.42857ZM26.9734 11.9048C27.1321 11.9048 27.271 11.8429 27.3901 11.719C27.5091 11.5952 27.5686 11.4508 27.5686 11.2857C27.5686 11.1206 27.5091 10.9762 27.3901 10.8524C27.271 10.7286 27.1321 10.6667 26.9734 10.6667C26.8147 10.6667 26.6758 10.7286 26.5567 10.8524C26.4377 10.9762 26.3782 11.1206 26.3782 11.2857C26.3782 11.4508 26.4377 11.5952 26.5567 11.719C26.6758 11.8429 26.8147 11.9048 26.9734 11.9048ZM12.6877 23.0476H22.2115C22.8663 23.0476 23.4268 22.8052 23.893 22.3202C24.3593 21.8353 24.5924 21.2524 24.5924 20.5714V16.8571H10.3067V20.5714C10.3067 21.2524 10.5399 21.8353 11.0061 22.3202C11.4724 22.8052 12.0329 23.0476 12.6877 23.0476Z" fill="#4D8802"/>
</svg>
