<svg width="40" height="33" viewBox="0 0 40 33" fill="none" xmlns="http://www.w3.org/2000/svg">
<rect width="40" height="33" rx="10" fill="#FFE8E8"/>
<path d="M10.0091 26C9.43041 26 8.93851 25.8081 8.53342 25.4242C8.12833 25.0403 7.92578 24.5742 7.92578 24.0258V21.525L13.4813 16.8526V26H10.0091ZM14.8702 26V20.7353H25.9813V26H14.8702ZM27.3702 26V15.2074L21.4327 10.206L25.6341 6.68526L32.2313 12.2461C32.4628 12.4435 32.6364 12.6683 32.7522 12.9206C32.8679 13.1729 32.9258 13.4416 32.9258 13.7268V24.0258C32.9258 24.5742 32.7232 25.0403 32.3181 25.4242C31.9131 25.8081 31.4212 26 30.8424 26H27.3702ZM7.92578 19.7482V13.7268C7.92578 13.4416 7.98365 13.1674 8.09939 12.9041C8.21513 12.6409 8.38874 12.4216 8.62023 12.2461L19.0369 3.49356C19.2221 3.31807 19.4362 3.19194 19.6793 3.11516C19.9223 3.03839 20.1712 3 20.4258 3C20.6804 3 20.9293 3.03839 21.1723 3.11516C21.4154 3.19194 21.6295 3.31807 21.8147 3.49356L24.5924 5.82976L7.92578 19.7482Z" fill="#DF1E1E" fill-opacity="0.75"/>
</svg>
