<svg width="40" height="33" viewBox="0 0 40 33" fill="none" xmlns="http://www.w3.org/2000/svg">
<rect width="40" height="33" rx="10" fill="#FBDA66" fill-opacity="0.26"/>
<path d="M19.9258 27L7.92578 12.8824C9.50911 10.9804 11.3383 9.52451 13.4133 8.51471C15.4883 7.5049 17.6591 7 19.9258 7C22.1924 7 24.3633 7.5049 26.4383 8.51471C28.5133 9.52451 30.3424 10.9804 31.9258 12.8824L19.9258 27ZM19.9258 23.6471L29.0258 12.9412C27.7091 11.7647 26.2758 10.8725 24.7258 10.2647C23.1758 9.65686 21.5758 9.35294 19.9258 9.35294C18.2758 9.35294 16.6758 9.65686 15.1258 10.2647C13.5758 10.8725 12.1424 11.7647 10.8258 12.9412L19.9258 23.6471ZM18.9258 19.9412V14.0588H20.9258V19.9412H18.9258ZM19.9258 12.8824C19.6424 12.8824 19.4049 12.7696 19.2133 12.5441C19.0216 12.3186 18.9258 12.0392 18.9258 11.7059C18.9258 11.3725 19.0216 11.0931 19.2133 10.8676C19.4049 10.6422 19.6424 10.5294 19.9258 10.5294C20.2091 10.5294 20.4466 10.6422 20.6383 10.8676C20.8299 11.0931 20.9258 11.3725 20.9258 11.7059C20.9258 12.0392 20.8299 12.3186 20.6383 12.5441C20.4466 12.7696 20.2091 12.8824 19.9258 12.8824Z" fill="#EBBA0B"/>
</svg>
